<?xml version="1.0" encoding="UTF-8" standalone="no"?>
<!-- Created with Inkscape (http://www.inkscape.org/) -->

<svg
   xmlns:dc="http://purl.org/dc/elements/1.1/"
   xmlns:cc="http://creativecommons.org/ns#"
   xmlns:rdf="http://www.w3.org/1999/02/22-rdf-syntax-ns#"
   xmlns:svg="http://www.w3.org/2000/svg"
   xmlns="http://www.w3.org/2000/svg"
   xmlns:xlink="http://www.w3.org/1999/xlink"
   xmlns:sodipodi="http://sodipodi.sourceforge.net/DTD/sodipodi-0.dtd"
   xmlns:inkscape="http://www.inkscape.org/namespaces/inkscape"
   width="100"
   height="100"
   id="svg2"
   version="1.1"
   inkscape:version="0.48.2 r9819"
   sodipodi:docname="parrot-small.svg"
   inkscape:export-filename="C:\mingw\msys\home\imizus\zetes-examples\parrot-server\res-src\parrot-small-color.png"
   inkscape:export-xdpi="21.6"
   inkscape:export-ydpi="21.6">
  <defs
     id="defs4">
    <linearGradient
       id="linearGradient4223">
      <stop
         style="stop-color:#ffffff;stop-opacity:1;"
         offset="0"
         id="stop4225" />
      <stop
         style="stop-color:#b4b6b4;stop-opacity:1;"
         offset="1"
         id="stop4227" />
    </linearGradient>
    <linearGradient
       id="linearGradient3897">
      <stop
         style="stop-color:#730000;stop-opacity:1;"
         offset="0"
         id="stop3899" />
      <stop
         style="stop-color:#b60000;stop-opacity:1;"
         offset="1"
         id="stop3901" />
    </linearGradient>
    <linearGradient
       id="linearGradient3889">
      <stop
         style="stop-color:#5c5c5c;stop-opacity:1;"
         offset="0"
         id="stop3891" />
      <stop
         style="stop-color:#202020;stop-opacity:1;"
         offset="1"
         id="stop3893" />
    </linearGradient>
    <linearGradient
       id="linearGradient3881">
      <stop
         style="stop-color:#989898;stop-opacity:1;"
         offset="0"
         id="stop3883" />
      <stop
         style="stop-color:#cccccc;stop-opacity:1;"
         offset="1"
         id="stop3885" />
    </linearGradient>
    <filter
       inkscape:collect="always"
       id="filter3829"
       x="-0.12622136"
       width="1.2524427"
       y="-0.61464313"
       height="2.2292863">
      <feGaussianBlur
         inkscape:collect="always"
         stdDeviation="2.1036894"
         id="feGaussianBlur3831" />
    </filter>
    <linearGradient
       inkscape:collect="always"
       xlink:href="#linearGradient3881"
       id="linearGradient3887"
       x1="57.5"
       y1="58.214287"
       x2="77.85714"
       y2="55"
       gradientUnits="userSpaceOnUse"
       gradientTransform="translate(-0.71428572,-5.7142857)" />
    <linearGradient
       inkscape:collect="always"
       xlink:href="#linearGradient3889"
       id="linearGradient3895"
       x1="53.214287"
       y1="66.25"
       x2="39.107143"
       y2="75.357147"
       gradientUnits="userSpaceOnUse"
       gradientTransform="translate(-0.71428572,-5.7142857)" />
    <linearGradient
       inkscape:collect="always"
       xlink:href="#linearGradient3897"
       id="linearGradient3903"
       x1="13.035714"
       y1="81.071426"
       x2="65.89286"
       y2="58.92857"
       gradientUnits="userSpaceOnUse"
       gradientTransform="translate(-0.71428572,-5.7142857)" />
    <filter
       inkscape:collect="always"
       id="filter3983"
       x="-0.30962842"
       width="1.6192568"
       y="-0.47810121"
       height="1.9562024">
      <feGaussianBlur
         inkscape:collect="always"
         stdDeviation="2.9468897"
         id="feGaussianBlur3985" />
    </filter>
    <linearGradient
       inkscape:collect="always"
       xlink:href="#linearGradient4223"
       id="linearGradient4229"
       x1="35.544743"
       y1="34.529488"
       x2="43.247154"
       y2="29.668129"
       gradientUnits="userSpaceOnUse"
       gradientTransform="matrix(1.6696466,0,0,1.6696466,-24.585298,-23.030843)" />
  </defs>
  <sodipodi:namedview
     id="base"
     pagecolor="#ffffff"
     bordercolor="#666666"
     borderopacity="1.0"
     inkscape:pageopacity="0.0"
     inkscape:pageshadow="2"
     inkscape:zoom="2"
     inkscape:cx="35.616948"
     inkscape:cy="15.581113"
     inkscape:document-units="px"
     inkscape:current-layer="layer3"
     showgrid="false"
     inkscape:window-width="1138"
     inkscape:window-height="814"
     inkscape:window-x="151"
     inkscape:window-y="135"
     inkscape:window-maximized="0" />
  <metadata
     id="metadata7">
    <rdf:RDF>
      <cc:Work
         rdf:about="">
        <dc:format>image/svg+xml</dc:format>
        <dc:type
           rdf:resource="http://purl.org/dc/dcmitype/StillImage" />
        <dc:title></dc:title>
      </cc:Work>
    </rdf:RDF>
  </metadata>
  <g
     inkscape:groupmode="layer"
     id="layer3"
     inkscape:label="color-bg1"
     style="display:inline">
    <path
       style="fill:url(#linearGradient3903);fill-opacity:1;stroke:none"
       d="m 12.142857,40.357142 c 4.442677,-10.466814 16.094789,-35.5869477 52.5,-30.178571 8.328067,2.160861 16.104764,9.34141 16.77789,13.569851 0.860881,5.407877 -0.764935,11.978301 -3.954168,12.797222 -3.280571,0.289191 -9.928607,24.695748 -3.404627,28.964374 3.475375,2.273931 5.793716,1.696048 8.374518,5.170758 4.963739,6.683021 9.300643,1.299646 10.777816,5.390652 C 90.676935,88.771134 34.65267,99.497724 16.925636,90.860139 14.557566,84.608545 12.189497,78.196431 9.8214283,68.75 7.5642722,59.538294 8.6902483,50.044661 12.142857,40.357142 z"
       id="path3784"
       inkscape:connector-curvature="0"
       sodipodi:nodetypes="ccscsscccc" />
    <path
       style="fill:none;stroke:#400000;stroke-width:2;stroke-linecap:butt;stroke-linejoin:miter;stroke-miterlimit:4;stroke-opacity:1;stroke-dasharray:none;display:inline"
       d="M 73.75,65.535714 C 82.321428,68.571428 84.285714,73.75 84.285714,73.75 l 6.25,0.892857"
       id="path3781"
       inkscape:connector-curvature="0"
       sodipodi:nodetypes="ccc" />
    <path
       style="fill:none;stroke:#400000;stroke-width:2;stroke-linecap:butt;stroke-linejoin:miter;stroke-miterlimit:4;stroke-opacity:1;stroke-dasharray:none;display:inline"
       d="M 16.25,90.357143 C 13.926914,83.751657 12.313317,80.186682 10.661983,72.909445 4.7045416,46.543146 14.773062,27.69641 30.178571,16.607142 c 6.926485,-5.26069 17.989665,-9.1533825 31.607143,-7.0076135 4.164549,0.8817865 10.197264,3.1754465 13.571429,6.4718995 6.287368,3.781564 6.732031,10.510899 5.988488,15.566353 -0.86905,3.489787 -2.150382,4.982079 -3.845631,5.505076"
       id="path3767"
       inkscape:connector-curvature="0"
       sodipodi:nodetypes="ccccccc" />
  </g>
  <g
     inkscape:groupmode="layer"
     id="layer5"
     inkscape:label="bg2"
     style="display:inline">
    <path
       style="fill:url(#linearGradient3895);fill-opacity:1;stroke:none"
       d="M 48.928571,46.785714 C 48.326702,51.904762 49.484224,57.023809 51.25,62.142857 l 7.5,5 0.714286,3.75 c -5.243866,2.736374 -12.259088,2.914122 -21.785715,-0.535714 -1.822874,-3.479264 -4.716825,-5.505769 -2.5,-14.464286 3.375212,-4.934191 7.091525,-9.332366 13.75,-9.107143 z"
       id="path3792"
       inkscape:connector-curvature="0"
       sodipodi:nodetypes="ccccccc" />
    <path
       style="fill:#505050;fill-opacity:1;stroke:none"
       d="M 55.892857,56.428571 C 58.400197,47.764187 57.49201,40.093281 54.285714,34.285714 52.366133,36.743912 50.433546,39.191541 50,42.857142 z"
       id="path3794"
       inkscape:connector-curvature="0"
       sodipodi:nodetypes="cccc" />
    <path
       style="fill:#1a1a1a;stroke:none"
       d="m 48.783189,46.808544 1.278474,-3.314563 5.540056,12.405936 c -0.487001,5.706123 1.783421,8.654822 3.535533,12.121831 L 51.30857,62.213371 C 47.985091,54.596743 48.363551,50.682054 48.783189,46.808544 z"
       id="path3798"
       inkscape:connector-curvature="0"
       sodipodi:nodetypes="cccccc" />
  </g>
  <g
     inkscape:groupmode="layer"
     id="layer4"
     inkscape:label="bg3"
     style="display:inline">
    <path
       style="fill:url(#linearGradient3887);fill-opacity:1;stroke:none"
       d="m 55.714286,56.25 c 1.987356,-10.510796 1.309163,-17.558984 -1.428572,-21.428572 5.903195,-5.375207 17.072664,-11.310085 22.857143,-5.357143 1.11067,11.148942 0.604183,22.783031 -3.035714,35.357143 -2.921057,10.385334 -8.8829,17.392017 -16.071429,23.035715 1.795285,-6.709539 2.311147,-12.992605 1.25,-18.75 C 56.993061,64.978883 54.748791,60.84371 55.714286,56.25 z"
       id="path3787"
       inkscape:connector-curvature="0"
       sodipodi:nodetypes="ccccccc" />
    <path
       style="fill:#ffffff;fill-opacity:0.62941176;stroke:none"
       d="M 37.142857,70.178571 C 38.794987,69.821428 33.530143,67.5 32.142857,67.5 23.200691,64.794566 19.211744,58.89477 18.928571,46.964286 18.526752,30.035124 35.764961,7.4809513 52.857143,19.642857 c 6.568916,4.674098 -2.084081,8.865314 1.428571,14.642857 l -3.035714,3.75 -1.25,5.535714 -1.428572,3.571429 c -6.684566,-1.237351 -9.941672,4.418054 -13.392857,9.642857 -1.665816,4.696343 -1.131179,9.172642 1.964286,13.392857 z"
       id="path3789"
       inkscape:connector-curvature="0"
       sodipodi:nodetypes="ccsscccccc" />
    <path
       style="fill:url(#linearGradient4229);fill-opacity:1;stroke:none"
       d="M 46.572598,38.907418 C 53.540331,25.290333 42.480784,18.213272 36.174797,19.944527 c -3.056812,2.130841 -9.483683,19.32669 10.397801,18.962891 z"
       id="path3796"
       inkscape:connector-curvature="0"
       sodipodi:nodetypes="ccc" />
    <path
       sodipodi:type="arc"
       style="color:#000000;fill:#000000;fill-opacity:1;fill-rule:nonzero;stroke:none;stroke-width:0.2246424;marker:none;visibility:visible;display:inline;overflow:visible;enable-background:accumulate"
       id="path3775"
       sodipodi:cx="37.375645"
       sodipodi:cy="30.362608"
       sodipodi:rx="0.50507629"
       sodipodi:ry="0.82074893"
       d="m 37.880721,30.362608 a 0.50507629,0.82074893 0 1 1 -1.010153,0 0.50507629,0.82074893 0 1 1 1.010153,0 z"
       transform="matrix(7.484559,0,0,5.7697971,-238.52339,-145.56406)" />
    <path
       sodipodi:type="arc"
       style="color:#000000;fill:#ffffff;fill-opacity:1;fill-rule:nonzero;stroke:none;stroke-width:1.29999995;marker:none;visibility:visible;display:inline;overflow:visible;enable-background:accumulate"
       id="path4005"
       sodipodi:cx="39.19643"
       sodipodi:cy="30.9375"
       sodipodi:rx="0.89285713"
       sodipodi:ry="1.3839285"
       d="m 40.089287,30.9375 a 0.89285713,1.3839285 0 1 1 -1.785714,0 0.89285713,1.3839285 0 1 1 1.785714,0 z"
       transform="matrix(0.97329452,0,0,0.97329452,4.3490492,-1.7856026)" />
  </g>
  <g
     inkscape:groupmode="layer"
     id="layer6"
     inkscape:label="lights"
     style="display:inline">
    <path
       style="opacity:0.58407078;fill:#ffffff;fill-opacity:1;stroke:none;filter:url(#filter3829)"
       d="m 74.642857,18.035714 c -19.758041,-6.30609 -28.149242,-2.508322 -40,-1.785715 4.963091,-4.731752 12.99675,-5.369413 20.714286,-6.4285706 9.10512,0.9831536 17.630291,4.0193116 19.285714,8.2142856 z"
       id="path3803"
       inkscape:connector-curvature="0"
       sodipodi:nodetypes="cccc" />
    <path
       style="opacity:0.3317308;fill:#ffffff;fill-opacity:1;stroke:none;filter:url(#filter3983)"
       d="M 92.324353,75.632247 C 90.08626,73.655981 87.052959,73.236672 84.338764,74.117018 82.886904,71.008057 78.931148,67.65122 73.775491,65.552385 l -3.766408,8.321068 c 5.927621,-0.627917 10.001673,0.733446 13.306838,4.937185 4.588537,2.701621 6.715741,1.09591 9.535172,0.701595 z"
       id="path3905"
       inkscape:connector-curvature="0"
       sodipodi:nodetypes="ccccccc" />
  </g>
  <g
     inkscape:groupmode="layer"
     id="layer2"
     inkscape:label="Front"
     style="display:inline">
    <path
       style="fill:none;stroke:#202020;stroke-width:3;stroke-linecap:butt;stroke-linejoin:miter;stroke-miterlimit:4;stroke-opacity:1;stroke-dasharray:none"
       d="M 48.783188,46.808544 C 34.792293,46.899754 27.8573,68.032193 41.585852,71.936089 45.591643,73.285226 53.639364,74.778162 59.51606,70.799668 L 59.263521,69.0319 58.000831,66.632788 51.182301,62.213371 C 49.64784,57.415146 48.302021,51.606769 48.783188,46.808544 z"
       id="path3779"
       inkscape:connector-curvature="0"
       sodipodi:nodetypes="ccccccc" />
    <path
       style="fill:none;stroke:#303030;stroke-width:3;stroke-linecap:butt;stroke-linejoin:miter;stroke-miterlimit:4;stroke-opacity:1;stroke-dasharray:none"
       d="m 49.91961,43.778087 c 2.14217,4.920089 2.608852,6.649462 5.682108,12.500637 -0.907091,4.980133 0.975668,7.774253 2.272843,9.59645 l 1.38896,3.156726 C 60.039103,79.395313 58.969667,82.74766 58.1271,86.962108 72.571977,78.320713 77.576572,58.593633 77.572536,41.631512 l 0,-9.343911 c 0.120217,-2.116038 0.0069,-4.178189 -4.166879,-5.3033 -9.987545,-0.802569 -23.616241,7.510684 -23.486047,16.793786 z"
       id="path3769"
       inkscape:connector-curvature="0"
       sodipodi:nodetypes="ccccccccc" />
    <path
       style="fill:none;stroke:#000000;stroke-width:1px;stroke-linecap:butt;stroke-linejoin:miter;stroke-opacity:1"
       d="m 63.304132,25.595341 c -1.080879,-1.463135 -4.984629,0.291475 -4.293149,2.525381 1.976357,1.18634 4.669436,-0.947997 4.293149,-2.525381 z"
       id="path3771"
       inkscape:connector-curvature="0"
       sodipodi:nodetypes="ccc" />
    <path
       style="fill:none;stroke:#404040;stroke-width:1.81496418;stroke-linecap:butt;stroke-linejoin:miter;stroke-miterlimit:4;stroke-opacity:1;stroke-dasharray:none"
       d="M 35.221052,20.620367 C 39.6952,16.379583 54.413494,27.239811 46.274044,38.305153 36.087156,38.87099 30.753767,33.715129 35.221052,20.620367 z"
       id="path3773"
       inkscape:connector-curvature="0"
       sodipodi:nodetypes="ccc" />
  </g>
</svg>
