<?xml version="1.0" encoding="UTF-8" standalone="no"?>
<!-- Created with Inkscape (http://www.inkscape.org/) -->

<svg
   xmlns:osb="http://www.openswatchbook.org/uri/2009/osb"
   xmlns:dc="http://purl.org/dc/elements/1.1/"
   xmlns:cc="http://creativecommons.org/ns#"
   xmlns:rdf="http://www.w3.org/1999/02/22-rdf-syntax-ns#"
   xmlns:svg="http://www.w3.org/2000/svg"
   xmlns="http://www.w3.org/2000/svg"
   xmlns:xlink="http://www.w3.org/1999/xlink"
   xmlns:sodipodi="http://sodipodi.sourceforge.net/DTD/sodipodi-0.dtd"
   xmlns:inkscape="http://www.inkscape.org/namespaces/inkscape"
   width="512"
   height="512"
   id="svg2"
   version="1.1"
   inkscape:version="0.48.2 r9819"
   sodipodi:docname="wingscreen-small.svg"
   inkscape:export-filename="wingscreen32.png"
   inkscape:export-xdpi="5.625"
   inkscape:export-ydpi="5.625">
  <defs
     id="defs4">
    <linearGradient
       id="linearGradient5353">
      <stop
         style="stop-color:#ffffff;stop-opacity:0.43243244;"
         offset="0"
         id="stop5355" />
      <stop
         id="stop5363"
         offset="0.17199448"
         style="stop-color:#ffffff;stop-opacity:0.4;" />
      <stop
         id="stop5361"
         offset="0.36799571"
         style="stop-color:#ffffff;stop-opacity:0.36862745;" />
      <stop
         style="stop-color:#ffffff;stop-opacity:0.58558559;"
         offset="1"
         id="stop5357" />
    </linearGradient>
    <linearGradient
       id="linearGradient4466">
      <stop
         style="stop-color:#d8d8d8;stop-opacity:1;"
         offset="0"
         id="stop4468" />
      <stop
         style="stop-color:#bababa;stop-opacity:1;"
         offset="1"
         id="stop4470" />
    </linearGradient>
    <linearGradient
       id="linearGradient3946">
      <stop
         style="stop-color:#7f5111;stop-opacity:1;"
         offset="0"
         id="stop3948" />
      <stop
         style="stop-color:#de8f1d;stop-opacity:1;"
         offset="1"
         id="stop3950" />
    </linearGradient>
    <linearGradient
       id="linearGradient3906">
      <stop
         id="stop3908"
         offset="0"
         style="stop-color:#5b3a0c;stop-opacity:1;" />
      <stop
         id="stop3910"
         offset="1"
         style="stop-color:#af7117;stop-opacity:1;" />
    </linearGradient>
    <linearGradient
       id="linearGradient3866">
      <stop
         style="stop-color:#d88b1d;stop-opacity:1;"
         offset="0"
         id="stop3868" />
      <stop
         style="stop-color:#e9ae59;stop-opacity:1;"
         offset="1"
         id="stop3870" />
    </linearGradient>
    <linearGradient
       id="linearGradient3860">
      <stop
         id="stop3862"
         offset="0"
         style="stop-color:#c37d1a;stop-opacity:1;" />
      <stop
         id="stop3864"
         offset="1"
         style="stop-color:#825411;stop-opacity:1;" />
    </linearGradient>
    <linearGradient
       id="linearGradient3784">
      <stop
         style="stop-color:#ffddb0;stop-opacity:1;"
         offset="0"
         id="stop3786" />
      <stop
         style="stop-color:#ffbb4d;stop-opacity:1;"
         offset="1"
         id="stop3788" />
    </linearGradient>
    <linearGradient
       id="linearGradient3768">
      <stop
         id="stop3991"
         offset="0"
         style="stop-color:#b6aeac;stop-opacity:0.50196075;" />
      <stop
         style="stop-color:#939ab9;stop-opacity:0.49411765;"
         offset="0.5"
         id="stop3993" />
      <stop
         style="stop-color:#97b1f1;stop-opacity:0.49206349;"
         offset="1"
         id="stop3772" />
    </linearGradient>
    <linearGradient
       id="linearGradient5213"
       osb:paint="solid">
      <stop
         style="stop-color:#0000ca;stop-opacity:1;"
         offset="0"
         id="stop5215" />
    </linearGradient>
    <inkscape:perspective
       sodipodi:type="inkscape:persp3d"
       inkscape:vp_x="-311.90451 : 444.24873 : 1"
       inkscape:vp_y="0 : 6119.5805 : 0"
       inkscape:vp_z="987.73517 : 447.43053 : 1"
       inkscape:persp3d-origin="418.5966 : -116.66632 : 1"
       id="perspective2985" />
    <linearGradient
       inkscape:collect="always"
       xlink:href="#linearGradient3768"
       id="linearGradient3782"
       x1="183.35417"
       y1="227.875"
       x2="77.062492"
       y2="52.875004"
       gradientUnits="userSpaceOnUse"
       gradientTransform="matrix(1,0,0,0.94900688,0,11.937294)" />
    <linearGradient
       inkscape:collect="always"
       xlink:href="#linearGradient3768-4"
       id="linearGradient3782-0"
       x1="183.35417"
       y1="227.875"
       x2="77.062492"
       y2="52.875004"
       gradientUnits="userSpaceOnUse" />
    <linearGradient
       id="linearGradient3768-4">
      <stop
         style="stop-color:#875712;stop-opacity:0.75793654;"
         offset="0"
         id="stop3770-8" />
      <stop
         style="stop-color:#b47418;stop-opacity:0.75793654;"
         offset="1"
         id="stop3772-0" />
    </linearGradient>
    <linearGradient
       inkscape:collect="always"
       xlink:href="#linearGradient3784-2"
       id="linearGradient3790-4"
       x1="67.013023"
       y1="23.985025"
       x2="207.43361"
       y2="34.922527"
       gradientUnits="userSpaceOnUse" />
    <linearGradient
       id="linearGradient3784-2">
      <stop
         style="stop-color:#ffd073;stop-opacity:1;"
         offset="0"
         id="stop3786-0" />
      <stop
         style="stop-color:#ffab22;stop-opacity:1;"
         offset="1"
         id="stop3788-2" />
    </linearGradient>
    <linearGradient
       gradientTransform="matrix(1,0,0,0.85737192,0,196.04184)"
       y2="34.922527"
       x2="207.43361"
       y1="23.985025"
       x1="67.013023"
       gradientUnits="userSpaceOnUse"
       id="linearGradient3841-4"
       xlink:href="#linearGradient3866-4"
       inkscape:collect="always" />
    <linearGradient
       id="linearGradient3866-4">
      <stop
         style="stop-color:#c37d1a;stop-opacity:1;"
         offset="0"
         id="stop3868-5" />
      <stop
         style="stop-color:#da8d1d;stop-opacity:1;"
         offset="1"
         id="stop3870-0" />
    </linearGradient>
    <linearGradient
       y2="34.922527"
       x2="207.43361"
       y1="23.985025"
       x1="67.013023"
       gradientTransform="matrix(0,1.0694655,-0.85737192,0,39.562605,-38.917618)"
       gradientUnits="userSpaceOnUse"
       id="linearGradient3887-9"
       xlink:href="#linearGradient3906-3"
       inkscape:collect="always" />
    <linearGradient
       id="linearGradient3906-3">
      <stop
         id="stop3908-8"
         offset="0"
         style="stop-color:#4b300a;stop-opacity:1;" />
      <stop
         id="stop3910-5"
         offset="1"
         style="stop-color:#af7117;stop-opacity:1;" />
    </linearGradient>
    <linearGradient
       inkscape:collect="always"
       xlink:href="#linearGradient3768-7"
       id="linearGradient3782-3"
       x1="183.35417"
       y1="227.875"
       x2="77.062492"
       y2="52.875004"
       gradientUnits="userSpaceOnUse"
       gradientTransform="matrix(1,0,0,0.94900688,0,11.937294)" />
    <linearGradient
       id="linearGradient3768-7">
      <stop
         style="stop-color:#875712;stop-opacity:0;"
         offset="0"
         id="stop3770-0" />
      <stop
         style="stop-color:#804006;stop-opacity:0.26587301;"
         offset="1"
         id="stop3772-2" />
    </linearGradient>
    <linearGradient
       y2="52.875004"
       x2="77.062492"
       y1="227.875"
       x1="183.35417"
       gradientTransform="matrix(1,0,0,0.20115748,0,187.00599)"
       gradientUnits="userSpaceOnUse"
       id="linearGradient3967"
       xlink:href="#linearGradient3768-7"
       inkscape:collect="always" />
    <linearGradient
       inkscape:collect="always"
       xlink:href="#linearGradient4466-4"
       id="linearGradient4472-7"
       x1="-750"
       y1="149.5"
       x2="-330"
       y2="219.5"
       gradientUnits="userSpaceOnUse" />
    <linearGradient
       id="linearGradient4466-4">
      <stop
         style="stop-color:#d8d8d8;stop-opacity:1;"
         offset="0"
         id="stop4468-0" />
      <stop
         style="stop-color:#bababa;stop-opacity:1;"
         offset="1"
         id="stop4470-9" />
    </linearGradient>
    <linearGradient
       gradientTransform="translate(2.6840212e-8,500)"
       y2="219.5"
       x2="-330"
       y1="149.5"
       x1="-750"
       gradientUnits="userSpaceOnUse"
       id="linearGradient4489-8"
       xlink:href="#linearGradient4466-4-8"
       inkscape:collect="always" />
    <linearGradient
       id="linearGradient4466-4-8">
      <stop
         style="stop-color:#d8d8d8;stop-opacity:1;"
         offset="0"
         id="stop4468-0-2" />
      <stop
         style="stop-color:#bababa;stop-opacity:1;"
         offset="1"
         id="stop4470-9-4" />
    </linearGradient>
    <linearGradient
       y2="219.5"
       x2="-330"
       y1="149.5"
       x1="-750"
       gradientTransform="translate(32.5,510)"
       gradientUnits="userSpaceOnUse"
       id="linearGradient4523-5"
       xlink:href="#linearGradient4466-4-8-1"
       inkscape:collect="always" />
    <linearGradient
       id="linearGradient4466-4-8-1">
      <stop
         style="stop-color:#d8d8d8;stop-opacity:1;"
         offset="0"
         id="stop4468-0-2-7" />
      <stop
         style="stop-color:#bababa;stop-opacity:1;"
         offset="1"
         id="stop4470-9-4-1" />
    </linearGradient>
    <filter
       inkscape:collect="always"
       id="filter5695"
       x="-0.068976691"
       width="1.1379534"
       y="-0.17612494"
       height="1.3522499">
      <feGaussianBlur
         inkscape:collect="always"
         stdDeviation="13.362012"
         id="feGaussianBlur5697" />
    </filter>
    <filter
       color-interpolation-filters="sRGB"
       inkscape:collect="always"
       id="filter4008"
       x="-0.19348954"
       width="1.3869791"
       y="-0.18248475"
       height="1.3649695">
      <feGaussianBlur
         inkscape:collect="always"
         stdDeviation="35.486195"
         id="feGaussianBlur4010" />
    </filter>
    <filter
       color-interpolation-filters="sRGB"
       inkscape:collect="always"
       id="filter3950"
       x="-0.15711477"
       width="1.3142295"
       y="-0.14590836"
       height="1.2918167">
      <feGaussianBlur
         inkscape:collect="always"
         stdDeviation="15.513129"
         id="feGaussianBlur3952" />
    </filter>
    <filter
       color-interpolation-filters="sRGB"
       inkscape:collect="always"
       id="filter3964"
       x="-0.20179585"
       width="1.4035918"
       y="-0.16675346"
       height="1.3335069">
      <feGaussianBlur
         inkscape:collect="always"
         stdDeviation="11.603261"
         id="feGaussianBlur3966" />
    </filter>
    <filter
       color-interpolation-filters="sRGB"
       inkscape:collect="always"
       id="filter3964-9"
       x="-0.20179585"
       width="1.4035918"
       y="-0.16675346"
       height="1.3335069">
      <feGaussianBlur
         inkscape:collect="always"
         stdDeviation="11.603261"
         id="feGaussianBlur3966-4" />
    </filter>
    <linearGradient
       inkscape:collect="always"
       xlink:href="#linearGradient4466"
       id="linearGradient6505"
       gradientUnits="userSpaceOnUse"
       gradientTransform="translate(792.78066,70.31856)"
       x1="-750"
       y1="149.5"
       x2="-330"
       y2="219.5" />
    <linearGradient
       inkscape:collect="always"
       xlink:href="#linearGradient5353"
       id="linearGradient6509"
       gradientUnits="userSpaceOnUse"
       gradientTransform="translate(792.78066,70.31856)"
       x1="-500.27805"
       y1="296.33243"
       x2="-569.22095"
       y2="71.826035" />
  </defs>
  <sodipodi:namedview
     id="base"
     pagecolor="#ffffff"
     bordercolor="#666666"
     borderopacity="1.0"
     inkscape:pageopacity="0.0"
     inkscape:pageshadow="2"
     inkscape:zoom="0.14142136"
     inkscape:cx="-1211.1329"
     inkscape:cy="723.6105"
     inkscape:document-units="px"
     inkscape:current-layer="layer3"
     showgrid="false"
     inkscape:window-width="1071"
     inkscape:window-height="759"
     inkscape:window-x="329"
     inkscape:window-y="112"
     inkscape:window-maximized="0"
     showguides="true"
     inkscape:guide-bbox="true"
     inkscape:snap-global="false" />
  <metadata
     id="metadata7">
    <rdf:RDF>
      <cc:Work
         rdf:about="">
        <dc:format>image/svg+xml</dc:format>
        <dc:type
           rdf:resource="http://purl.org/dc/dcmitype/StillImage" />
        <dc:title></dc:title>
      </cc:Work>
    </rdf:RDF>
  </metadata>
  <g
     inkscape:groupmode="layer"
     id="layer3"
     inkscape:label="screen"
     style="display:inline">
    <path
       style="fill:#dddddd;fill-opacity:1;stroke:#666666;stroke-width:6;stroke-linecap:butt;stroke-linejoin:miter;stroke-miterlimit:4;stroke-opacity:1;stroke-dasharray:none"
       d="M 96.25,97.606602 149.04341,73.00858 c 6.99725,-3.483697 14.35776,-5.877626 22.5295,-5.837868 l 165.92709,0 c 8.10492,-0.317137 12.6743,1.266576 19.01145,4.480631 L 408.75,97.606602 z"
       id="path5716"
       inkscape:connector-curvature="0"
       sodipodi:nodetypes="ccccccc" />
    <path
       style="opacity:0.92920353;fill:#000000;stroke:none;filter:url(#filter5695)"
       d="m -731.85551,234.46059 -40.65864,132.58252 0,24.74874 22.98097,24.74874 404.81863,0 26.5165,-24.74874 10.6066,-35.35534 -42.4264,-118.44039 z"
       id="path5693"
       inkscape:connector-curvature="0"
       transform="matrix(0.92820308,0,0,0.92820308,757.54207,77.77859)" />
    <rect
       style="color:#000000;fill:#000000;fill-opacity:1;fill-rule:nonzero;stroke:#000000;stroke-width:3;marker:none;visibility:visible;display:inline;overflow:visible;enable-background:accumulate"
       id="rect4579"
       width="382.5"
       height="290"
       x="67.780678"
       y="109.81856"
       ry="55.944374" />
    <path
       style="color:#000000;fill:url(#linearGradient6505);fill-opacity:1;stroke:#666666;stroke-width:6;stroke-linecap:butt;stroke-linejoin:round;stroke-miterlimit:4;stroke-opacity:1;stroke-dasharray:none;stroke-dashoffset:0;marker:none;visibility:visible;display:inline;overflow:visible;enable-background:accumulate"
       d="m 93.81191,84.91231 c -30.99318,0 -55.9375,24.94431 -55.9375,55.9375 l 0,262.9375 c 0,30.99318 24.94432,55.9375 55.9375,55.9375 l 317.9375,0 c 30.99318,0 55.9375,-24.94432 55.9375,-55.9375 l 0,-262.9375 c 0,-30.99319 -24.94432,-55.9375 -55.9375,-55.9375 z m 11.0625,38.90625 301.8125,0 c 13.20708,0 23.84375,10.63667 23.84375,23.84375 l 0,219.3125 c 0,13.20708 -10.63667,23.84375 -23.84375,23.84375 l -301.8125,0 c -13.20708,0 -23.84375,-10.63667 -23.84375,-23.84375 l 0,-219.3125 c 0,-13.20708 10.63667,-23.84375 23.84375,-23.84375 z"
       id="rect4443"
       inkscape:connector-curvature="0"
       sodipodi:nodetypes="ssssssssssssssssss" />
    <rect
       style="color:#000000;fill:#008000;stroke:none;stroke-width:3;marker:none;visibility:visible;display:inline;overflow:visible;enable-background:accumulate"
       id="rect4463"
       width="54.069973"
       height="22.966778"
       x="361.22974"
       y="409.67859"
       ry="11.483389" />
    <text
       xml:space="preserve"
       style="font-size:322.81768799px;font-style:normal;font-weight:normal;line-height:125%;letter-spacing:0px;word-spacing:0px;fill:#00ff00;fill-opacity:1;stroke:none;font-family:Sans"
       x="98.032684"
       y="322.32986"
       id="text5404"
       sodipodi:linespacing="125%"><tspan
         sodipodi:role="line"
         id="tspan5406"
         x="98.032684"
         y="322.32986"
         style="font-style:normal;font-variant:normal;font-weight:bold;font-stretch:normal;fill:#00ff00;font-family:CourierPS;-inkscape-font-specification:CourierPS Bold">&gt;</tspan></text>
    <rect
       style="opacity:0.56194691;color:#000000;fill:url(#linearGradient6509);fill-opacity:1;fill-rule:nonzero;stroke:#000000;stroke-width:3;stroke-linecap:butt;stroke-linejoin:round;stroke-miterlimit:4;stroke-opacity:1;stroke-dasharray:none;stroke-dashoffset:0;marker:none;visibility:visible;display:inline;overflow:visible;enable-background:accumulate"
       id="rect5351"
       width="336.03552"
       height="254.57108"
       x="87.93235"
       y="128.93468"
       ry="20.589035" />
    <path
       style="color:#000000;fill:#ececec;fill-opacity:1;stroke:none;stroke-width:3.17268705;marker:none;visibility:visible;display:inline;overflow:visible;enable-background:accumulate"
       d="m 95.57968,89.48337 c -30.99318,0 -53.9375,23.17656 -53.9375,54.16974 l 0,260.9375 c 0,24.376 13.42664,43.01887 35.09375,50.71875 -15.13871,-9.98878 -25.09375,-23.14495 -25.09375,-42.71875 l 0,-268.9375 c 0,-30.99318 20.94432,-48.16974 51.9375,-48.16974 l 321.9375,0 c 6.61718,0 12.96193,1.12852 18.84375,3.21875 -8.83195,-5.82747 -19.42437,-9.21875 -30.84375,-9.21875 z"
       id="rect4443-4-5"
       inkscape:connector-curvature="0"
       sodipodi:nodetypes="ssscsssscss" />
    <rect
       style="color:#000000;fill:#00ff00;stroke:none;stroke-width:3;marker:none;visibility:visible;display:inline;overflow:visible;enable-background:accumulate"
       id="rect4463-5"
       width="49.564148"
       height="21.052879"
       x="366.45651"
       y="412.10291"
       ry="10.52644" />
    <rect
       style="color:#000000;fill:none;stroke:#808080;stroke-width:3.93695688;marker:none;visibility:visible;display:inline;overflow:visible;enable-background:accumulate"
       id="rect4463-5-2"
       width="64.079865"
       height="29.989321"
       x="359.42398"
       y="407.95367"
       ry="14.99466" />
    <path
       style="fill:#ffffff;fill-opacity:0.49468085;stroke:none"
       d="m 99.213718,259.17695 0,-91.02453 c 0,-17.58714 7.685692,-27.61419 27.614182,-27.61419 l 95.11552,0 c -47.18391,16.91576 -85.15085,43.70686 -108.61786,86.03361 -5.53313,9.97995 -10.26017,20.82358 -14.111842,32.60511 z"
       id="path5428"
       inkscape:connector-curvature="0"
       sodipodi:nodetypes="csscsc" />
  </g>
  <g
     inkscape:groupmode="layer"
     id="layer1"
     inkscape:label="wing"
     style="display:inline"
     sodipodi:insensitive="true">
    <g
       id="g3144"
       transform="matrix(0.62786872,0,0,0.62786872,258.09552,374.86043)"
       style="stroke-width:12.63142109;stroke-miterlimit:4;stroke-dasharray:none;display:inline">
      <path
         sodipodi:nodetypes="cssccccsccc"
         inkscape:connector-curvature="0"
         id="path3050-1-4"
         d="m -291.2623,-293.8534 c -5.70546,105.23716 45.67057,180.08745 227.262781,219.289496 29.46441,6.36076 83.59395,30.34972 65.7738599,60.72931 -17.8001599,30.34562 -28.3829399,43.90455 39.7726201,58.45202 15.8261,1.89586 20.34495,11.69788 23.6065,28.20706 17.25583,4.20045 33.07726,9.22897 34.913429,24.11807 0.74703,14.058744 -27.610029,15.762734 -61.401839,15.159644 9.97919,33.26204 -5.29973,63.17568 -40.1517401,60.59569 C -34.445429,170.25805 -47.291579,140.12157 -18.497339,104.32657 -167.38178,199.77497 -401.37762,53.041016 -311.47011,-76.660524 -372.07163,-185.6909 -322.29192,-266.34327 -291.2623,-293.8534 z"
         style="fill:#000000;stroke:none;filter:url(#filter4008)" />
      <path
         sodipodi:nodetypes="cssccccsccc"
         inkscape:connector-curvature="0"
         id="path3050-1"
         d="m -295.53711,-290.05355 c -4.52987,105.2943 47.67885,179.56619 229.697521,216.737866 29.53361,6.03132 83.92767,29.41429 66.44794988,59.991 -17.46015988,30.5425 -27.89086988,44.21878 40.42290012,58.00421 15.84629,1.71901 20.47432,11.46995 23.92003,27.94167 17.30166,4.00749 33.17826,8.85901 35.180589,23.72668 0.90398,14.049524 -27.432279,16.070084 -61.228709,15.844394 10.35001,33.14853 -4.59389,63.23093 -39.47254012,61.04031 C -33.553299,171.16096 -46.735199,141.16981 -18.342499,105.05549 -166.15173,202.16061 -401.77163,58.048946 -313.31817,-72.648544 -375.1335,-180.99536 -326.25757,-262.19862 -295.53711,-290.05355 z"
         style="fill:#e6e6e6;stroke:none" />
      <path
         sodipodi:nodetypes="cccccccccccccccscccccc"
         inkscape:connector-curvature="0"
         id="path3824-0"
         d="m -70.027869,-72.747044 37.29274,14.52506 c 48.57823,24.37656 25.4559599,29.09439 12.17897,77.02046 l 9.80254,13.16352 52.47025,13.19307 c 5.4201,1.40744 11.24786,15.73405 14.39691,23.95463 l 30.96929,14.95913 5.37454,13.68945 -10.68331,12.319904 -51.20803,0.10024 2.51359,35.15657 -18.65001,25.22472 -27.94879,1.78078 c -34.33858,-11.9732 -25.60769,-17.79636 -28.98232,-36.41866 3.76135,-8.62317 2.22719,-9.57921 10.98223,-25.77687 -43.32437,25.35775 -90.940121,-2.91503 -90.244261,-44.430204 0.28244,-16.84987 -3.51097,-29.66556 31.608981,-44.47267 -14.759621,3.64426 -31.477001,-13.0938203 -48.166741,-29.5442203 -7.92787,-20.8820197 -8.68209,-40.4158397 0.30683,-58.1185597 l 21.70258,-16.40932 28.131021,1.39747 z"
         style="fill:#000000;stroke:none;filter:url(#filter3950)" />
      <path
         sodipodi:nodetypes="cccccccccccccccscccccc"
         inkscape:connector-curvature="0"
         id="path3824"
         d="m -62.249699,-72.747044 37.29274,14.52506 c 48.57823,24.37656 25.45595988,29.09439 12.17897,77.02046 l 9.8025399,13.16352 52.4702501,13.19307 c 5.4201,1.40744 11.24786,15.73405 14.39691,23.95463 l 30.96929,14.95913 5.374539,13.68945 -10.683309,12.319904 -51.20803,0.10024 2.51359,35.15657 -18.65001,25.22472 -27.9487901,1.78078 c -34.3385799,-11.9732 -25.6076899,-17.79636 -28.9823199,-36.41866 3.76135,-8.62317 2.22719,-9.57921 10.98223,-25.77687 -43.32437,25.35775 -90.940121,-2.91503 -90.244261,-44.430204 0.28244,-16.84987 -3.51097,-29.66556 31.608981,-44.47267 -14.75962,3.64426 -31.477001,-13.0938203 -48.166741,-29.5442203 -7.92787,-20.8820197 -8.68209,-40.4158397 0.30683,-58.1185597 l 21.70258,-16.40932 28.131021,1.39747 z"
         style="fill:#ffffff;stroke:none" />
      <path
         sodipodi:nodetypes="cssccccsccc"
         inkscape:connector-curvature="0"
         id="path3050"
         d="m -295.53711,-290.05355 c -4.52987,105.2943 47.67885,179.56619 229.697521,216.737866 29.53361,6.03132 83.92767,29.41429 66.44794988,59.991 -17.46015988,30.5425 -27.89086988,44.21878 40.42290012,58.00421 15.84629,1.71901 20.47432,11.46995 23.92003,27.94167 17.30166,4.00749 33.17826,8.85901 35.180589,23.72668 0.90398,14.049524 -27.432279,16.070084 -61.228709,15.844394 10.35001,33.14853 -4.59389,63.23093 -39.47254012,61.04031 C -33.553299,171.16096 -46.735199,141.16981 -18.342499,105.05549 -166.15173,202.16061 -401.77163,58.048946 -313.31817,-72.648544 -375.1335,-180.99536 -326.25757,-262.19862 -295.53711,-290.05355 z"
         style="fill:none;stroke:#000000;stroke-width:12.63142109;stroke-linecap:butt;stroke-linejoin:miter;stroke-miterlimit:4;stroke-opacity:1;stroke-dasharray:none" />
      <path
         sodipodi:nodetypes="ccc"
         inkscape:connector-curvature="0"
         id="path3052"
         d="m -78.006949,-75.840564 c -97.524691,-26.782446 -73.849311,115.26339 13.02619,89.13353 -99.774211,10.12995 -44.801301,136.296414 38.56048,97.863174"
         style="fill:none;stroke:#000000;stroke-width:12.63142109;stroke-linecap:butt;stroke-linejoin:miter;stroke-miterlimit:4;stroke-opacity:1;stroke-dasharray:none" />
      <path
         sodipodi:nodetypes="cc"
         inkscape:connector-curvature="0"
         id="path3822"
         d="m -313.63821,-73.927954 c 31.5338,43.00956 73.52271,73.43831965 117.10742,92.66528"
         style="fill:none;stroke:#000000;stroke-width:12.63142109;stroke-linecap:butt;stroke-linejoin:miter;stroke-miterlimit:4;stroke-opacity:1;stroke-dasharray:none" />
      <path
         sodipodi:nodetypes="cccc"
         inkscape:connector-curvature="0"
         id="path3954"
         d="m -327.40761,-160.69966 138,166.9999957 c -35.98715,-19.0771097 -72.54788,-34.7126897 -106,-68.9999997 -23.63726,-30.81373 -26.21647,-64.635736 -32,-97.999996 z"
         style="opacity:0.27876108;fill:#000000;stroke:none;filter:url(#filter3964)" />
      <path
         transform="matrix(0.96927289,-0.24598792,0.24598792,0.96927289,-474.5814,-268.58642)"
         sodipodi:nodetypes="cccc"
         inkscape:connector-curvature="0"
         id="path3954-8"
         d="M 78.999998,297.5 217,464.5 c -35.98715,-19.07711 -72.54788,-34.71269 -106,-69 -23.637257,-30.81373 -26.216467,-64.63574 -32.000002,-98 z"
         style="opacity:0.28318583;fill:#000000;stroke:none;filter:url(#filter3964-9)" />
    </g>
  </g>
</svg>
