<?xml version="1.0" encoding="UTF-8" standalone="no"?>
<!-- Created with Inkscape (http://www.inkscape.org/) -->

<svg
   xmlns:osb="http://www.openswatchbook.org/uri/2009/osb"
   xmlns:dc="http://purl.org/dc/elements/1.1/"
   xmlns:cc="http://creativecommons.org/ns#"
   xmlns:rdf="http://www.w3.org/1999/02/22-rdf-syntax-ns#"
   xmlns:svg="http://www.w3.org/2000/svg"
   xmlns="http://www.w3.org/2000/svg"
   xmlns:xlink="http://www.w3.org/1999/xlink"
   xmlns:sodipodi="http://sodipodi.sourceforge.net/DTD/sodipodi-0.dtd"
   xmlns:inkscape="http://www.inkscape.org/namespaces/inkscape"
   width="512"
   height="512"
   id="svg2"
   version="1.1"
   inkscape:version="0.48.2 r9819"
   sodipodi:docname="wingscreen.svg"
   inkscape:export-filename="wingscreen64.png"
   inkscape:export-xdpi="11.25"
   inkscape:export-ydpi="11.25">
  <defs
     id="defs4">
    <linearGradient
       id="linearGradient5353">
      <stop
         style="stop-color:#ffffff;stop-opacity:0.43243244;"
         offset="0"
         id="stop5355" />
      <stop
         id="stop5363"
         offset="0.17199448"
         style="stop-color:#ffffff;stop-opacity:0.4;" />
      <stop
         id="stop5361"
         offset="0.36799571"
         style="stop-color:#ffffff;stop-opacity:0.36862745;" />
      <stop
         style="stop-color:#ffffff;stop-opacity:0.58558559;"
         offset="1"
         id="stop5357" />
    </linearGradient>
    <linearGradient
       id="linearGradient4466">
      <stop
         style="stop-color:#d8d8d8;stop-opacity:1;"
         offset="0"
         id="stop4468" />
      <stop
         style="stop-color:#bababa;stop-opacity:1;"
         offset="1"
         id="stop4470" />
    </linearGradient>
    <linearGradient
       id="linearGradient3946">
      <stop
         style="stop-color:#7f5111;stop-opacity:1;"
         offset="0"
         id="stop3948" />
      <stop
         style="stop-color:#de8f1d;stop-opacity:1;"
         offset="1"
         id="stop3950" />
    </linearGradient>
    <linearGradient
       id="linearGradient3906">
      <stop
         id="stop3908"
         offset="0"
         style="stop-color:#5b3a0c;stop-opacity:1;" />
      <stop
         id="stop3910"
         offset="1"
         style="stop-color:#af7117;stop-opacity:1;" />
    </linearGradient>
    <linearGradient
       id="linearGradient3866">
      <stop
         style="stop-color:#d88b1d;stop-opacity:1;"
         offset="0"
         id="stop3868" />
      <stop
         style="stop-color:#e9ae59;stop-opacity:1;"
         offset="1"
         id="stop3870" />
    </linearGradient>
    <linearGradient
       id="linearGradient3860">
      <stop
         id="stop3862"
         offset="0"
         style="stop-color:#c37d1a;stop-opacity:1;" />
      <stop
         id="stop3864"
         offset="1"
         style="stop-color:#825411;stop-opacity:1;" />
    </linearGradient>
    <linearGradient
       id="linearGradient3784">
      <stop
         style="stop-color:#ffddb0;stop-opacity:1;"
         offset="0"
         id="stop3786" />
      <stop
         style="stop-color:#ffbb4d;stop-opacity:1;"
         offset="1"
         id="stop3788" />
    </linearGradient>
    <linearGradient
       id="linearGradient3768">
      <stop
         id="stop3991"
         offset="0"
         style="stop-color:#b6aeac;stop-opacity:0.50196075;" />
      <stop
         style="stop-color:#939ab9;stop-opacity:0.49411765;"
         offset="0.5"
         id="stop3993" />
      <stop
         style="stop-color:#97b1f1;stop-opacity:0.49206349;"
         offset="1"
         id="stop3772" />
    </linearGradient>
    <linearGradient
       id="linearGradient5213"
       osb:paint="solid">
      <stop
         style="stop-color:#0000ca;stop-opacity:1;"
         offset="0"
         id="stop5215" />
    </linearGradient>
    <inkscape:perspective
       sodipodi:type="inkscape:persp3d"
       inkscape:vp_x="-311.90451 : 444.24873 : 1"
       inkscape:vp_y="0 : 6119.5805 : 0"
       inkscape:vp_z="987.73517 : 447.43053 : 1"
       inkscape:persp3d-origin="418.5966 : -116.66632 : 1"
       id="perspective2985" />
    <linearGradient
       inkscape:collect="always"
       xlink:href="#linearGradient3768"
       id="linearGradient3782"
       x1="183.35417"
       y1="227.875"
       x2="77.062492"
       y2="52.875004"
       gradientUnits="userSpaceOnUse"
       gradientTransform="matrix(1,0,0,0.94900688,0,11.937294)" />
    <linearGradient
       inkscape:collect="always"
       xlink:href="#linearGradient3768-4"
       id="linearGradient3782-0"
       x1="183.35417"
       y1="227.875"
       x2="77.062492"
       y2="52.875004"
       gradientUnits="userSpaceOnUse" />
    <linearGradient
       id="linearGradient3768-4">
      <stop
         style="stop-color:#875712;stop-opacity:0.75793654;"
         offset="0"
         id="stop3770-8" />
      <stop
         style="stop-color:#b47418;stop-opacity:0.75793654;"
         offset="1"
         id="stop3772-0" />
    </linearGradient>
    <linearGradient
       inkscape:collect="always"
       xlink:href="#linearGradient3784-2"
       id="linearGradient3790-4"
       x1="67.013023"
       y1="23.985025"
       x2="207.43361"
       y2="34.922527"
       gradientUnits="userSpaceOnUse" />
    <linearGradient
       id="linearGradient3784-2">
      <stop
         style="stop-color:#ffd073;stop-opacity:1;"
         offset="0"
         id="stop3786-0" />
      <stop
         style="stop-color:#ffab22;stop-opacity:1;"
         offset="1"
         id="stop3788-2" />
    </linearGradient>
    <linearGradient
       gradientTransform="matrix(1,0,0,0.85737192,0,196.04184)"
       y2="34.922527"
       x2="207.43361"
       y1="23.985025"
       x1="67.013023"
       gradientUnits="userSpaceOnUse"
       id="linearGradient3841-4"
       xlink:href="#linearGradient3866-4"
       inkscape:collect="always" />
    <linearGradient
       id="linearGradient3866-4">
      <stop
         style="stop-color:#c37d1a;stop-opacity:1;"
         offset="0"
         id="stop3868-5" />
      <stop
         style="stop-color:#da8d1d;stop-opacity:1;"
         offset="1"
         id="stop3870-0" />
    </linearGradient>
    <linearGradient
       y2="34.922527"
       x2="207.43361"
       y1="23.985025"
       x1="67.013023"
       gradientTransform="matrix(0,1.0694655,-0.85737192,0,39.562605,-38.917618)"
       gradientUnits="userSpaceOnUse"
       id="linearGradient3887-9"
       xlink:href="#linearGradient3906-3"
       inkscape:collect="always" />
    <linearGradient
       id="linearGradient3906-3">
      <stop
         id="stop3908-8"
         offset="0"
         style="stop-color:#4b300a;stop-opacity:1;" />
      <stop
         id="stop3910-5"
         offset="1"
         style="stop-color:#af7117;stop-opacity:1;" />
    </linearGradient>
    <linearGradient
       inkscape:collect="always"
       xlink:href="#linearGradient3768-7"
       id="linearGradient3782-3"
       x1="183.35417"
       y1="227.875"
       x2="77.062492"
       y2="52.875004"
       gradientUnits="userSpaceOnUse"
       gradientTransform="matrix(1,0,0,0.94900688,0,11.937294)" />
    <linearGradient
       id="linearGradient3768-7">
      <stop
         style="stop-color:#875712;stop-opacity:0;"
         offset="0"
         id="stop3770-0" />
      <stop
         style="stop-color:#804006;stop-opacity:0.26587301;"
         offset="1"
         id="stop3772-2" />
    </linearGradient>
    <linearGradient
       y2="52.875004"
       x2="77.062492"
       y1="227.875"
       x1="183.35417"
       gradientTransform="matrix(1,0,0,0.20115748,0,187.00599)"
       gradientUnits="userSpaceOnUse"
       id="linearGradient3967"
       xlink:href="#linearGradient3768-7"
       inkscape:collect="always" />
    <linearGradient
       inkscape:collect="always"
       xlink:href="#linearGradient4466-4"
       id="linearGradient4472-7"
       x1="-750"
       y1="149.5"
       x2="-330"
       y2="219.5"
       gradientUnits="userSpaceOnUse" />
    <linearGradient
       id="linearGradient4466-4">
      <stop
         style="stop-color:#d8d8d8;stop-opacity:1;"
         offset="0"
         id="stop4468-0" />
      <stop
         style="stop-color:#bababa;stop-opacity:1;"
         offset="1"
         id="stop4470-9" />
    </linearGradient>
    <linearGradient
       gradientTransform="translate(2.6840212e-8,500)"
       y2="219.5"
       x2="-330"
       y1="149.5"
       x1="-750"
       gradientUnits="userSpaceOnUse"
       id="linearGradient4489-8"
       xlink:href="#linearGradient4466-4-8"
       inkscape:collect="always" />
    <linearGradient
       id="linearGradient4466-4-8">
      <stop
         style="stop-color:#d8d8d8;stop-opacity:1;"
         offset="0"
         id="stop4468-0-2" />
      <stop
         style="stop-color:#bababa;stop-opacity:1;"
         offset="1"
         id="stop4470-9-4" />
    </linearGradient>
    <linearGradient
       y2="219.5"
       x2="-330"
       y1="149.5"
       x1="-750"
       gradientTransform="translate(32.5,510)"
       gradientUnits="userSpaceOnUse"
       id="linearGradient4523-5"
       xlink:href="#linearGradient4466-4-8-1"
       inkscape:collect="always" />
    <linearGradient
       id="linearGradient4466-4-8-1">
      <stop
         style="stop-color:#d8d8d8;stop-opacity:1;"
         offset="0"
         id="stop4468-0-2-7" />
      <stop
         style="stop-color:#bababa;stop-opacity:1;"
         offset="1"
         id="stop4470-9-4-1" />
    </linearGradient>
    <filter
       inkscape:collect="always"
       id="filter5695"
       x="-0.068976691"
       width="1.1379534"
       y="-0.17612494"
       height="1.3522499">
      <feGaussianBlur
         inkscape:collect="always"
         stdDeviation="13.362012"
         id="feGaussianBlur5697" />
    </filter>
    <linearGradient
       inkscape:collect="always"
       xlink:href="#linearGradient4466"
       id="linearGradient5712"
       gradientUnits="userSpaceOnUse"
       gradientTransform="translate(-98.994949,-166.17009)"
       x1="-750"
       y1="149.5"
       x2="-330"
       y2="219.5" />
    <linearGradient
       inkscape:collect="always"
       xlink:href="#linearGradient5353"
       id="linearGradient5714"
       gradientUnits="userSpaceOnUse"
       gradientTransform="translate(-98.994949,-166.17009)"
       x1="-500.27805"
       y1="296.33243"
       x2="-569.22095"
       y2="71.826035" />
    <filter
       color-interpolation-filters="sRGB"
       inkscape:collect="always"
       id="filter4252-2-3-7-8-2-3-8"
       x="-0.12709761"
       width="1.2541952"
       y="-0.30834296"
       height="1.6166859">
      <feGaussianBlur
         inkscape:collect="always"
         stdDeviation="0.52616606"
         id="feGaussianBlur4254-7-2-6-9-3-6-2" />
    </filter>
    <filter
       color-interpolation-filters="sRGB"
       inkscape:collect="always"
       id="filter4252-2-3-7-3-0-9"
       x="-0.12709761"
       width="1.2541952"
       y="-0.30834296"
       height="1.6166859">
      <feGaussianBlur
         inkscape:collect="always"
         stdDeviation="0.52616606"
         id="feGaussianBlur4254-7-2-6-4-6-1" />
    </filter>
    <filter
       color-interpolation-filters="sRGB"
       inkscape:collect="always"
       id="filter4252-2-3-6-1-0-3"
       x="-0.12709761"
       width="1.2541952"
       y="-0.30834296"
       height="1.6166859">
      <feGaussianBlur
         inkscape:collect="always"
         stdDeviation="0.52616606"
         id="feGaussianBlur4254-7-2-8-1-0-5" />
    </filter>
    <filter
       color-interpolation-filters="sRGB"
       inkscape:collect="always"
       id="filter4252-2-3-3-7-9"
       x="-0.12709761"
       width="1.2541952"
       y="-0.30834296"
       height="1.6166859">
      <feGaussianBlur
         inkscape:collect="always"
         stdDeviation="0.52616606"
         id="feGaussianBlur4254-7-2-87-5-8" />
    </filter>
    <filter
       color-interpolation-filters="sRGB"
       inkscape:collect="always"
       id="filter4252-2-1-4-4-4"
       x="-0.12709761"
       width="1.2541952"
       y="-0.30834296"
       height="1.6166859">
      <feGaussianBlur
         inkscape:collect="always"
         stdDeviation="0.52616606"
         id="feGaussianBlur4254-7-4-2-9-0" />
    </filter>
    <filter
       inkscape:collect="always"
       id="filter4495-3-7"
       x="-0.15548293"
       width="1.3109659"
       y="-0.4384912"
       height="1.8769825"
       color-interpolation-filters="sRGB">
      <feGaussianBlur
         inkscape:collect="always"
         stdDeviation="0.65866726"
         id="feGaussianBlur4497-5-6" />
    </filter>
    <filter
       color-interpolation-filters="sRGB"
       inkscape:collect="always"
       id="filter4252-9-9-3"
       x="-0.12709761"
       width="1.2541952"
       y="-0.30834296"
       height="1.6166859">
      <feGaussianBlur
         inkscape:collect="always"
         stdDeviation="0.52616606"
         id="feGaussianBlur4254-3-7-6" />
    </filter>
    <filter
       color-interpolation-filters="sRGB"
       inkscape:collect="always"
       id="filter4190-5-1-3-0-1"
       x="-0.14197031"
       width="1.2839406"
       y="-0.10391834"
       height="1.2078367">
      <feGaussianBlur
         inkscape:collect="always"
         stdDeviation="0.72200605"
         id="feGaussianBlur4192-1-1-1-2-5" />
    </filter>
    <filter
       color-interpolation-filters="sRGB"
       inkscape:collect="always"
       id="filter4190-5-5-4-4"
       x="-0.14197031"
       width="1.2839406"
       y="-0.10391834"
       height="1.2078367">
      <feGaussianBlur
         inkscape:collect="always"
         stdDeviation="0.72200605"
         id="feGaussianBlur4192-1-4-9-2" />
    </filter>
    <filter
       color-interpolation-filters="sRGB"
       inkscape:collect="always"
       id="filter4190-7-0-0"
       x="-0.14197031"
       width="1.2839406"
       y="-0.10391834"
       height="1.2078367">
      <feGaussianBlur
         inkscape:collect="always"
         stdDeviation="0.72200605"
         id="feGaussianBlur4192-9-0-9" />
    </filter>
    <filter
       color-interpolation-filters="sRGB"
       inkscape:collect="always"
       id="filter4162-1-2-7"
       x="-0.24302156"
       width="1.4860431"
       y="-0.13967165"
       height="1.2793432">
      <feGaussianBlur
         inkscape:collect="always"
         stdDeviation="1.3530692"
         id="feGaussianBlur4164-9-0-3" />
    </filter>
    <filter
       inkscape:collect="always"
       id="filter4109-7-7"
       x="-0.12781"
       width="1.25562"
       y="-0.095878616"
       height="1.1917572"
       color-interpolation-filters="sRGB">
      <feGaussianBlur
         inkscape:collect="always"
         stdDeviation="0.84973466"
         id="feGaussianBlur4111-0-2" />
    </filter>
    <filter
       inkscape:collect="always"
       id="filter3928-3-6"
       color-interpolation-filters="sRGB">
      <feGaussianBlur
         inkscape:collect="always"
         stdDeviation="1.0985054"
         id="feGaussianBlur3930-9-0" />
    </filter>
    <filter
       inkscape:collect="always"
       id="filter4053-6-1"
       x="-0.11881103"
       width="1.2376221"
       y="-0.1221172"
       height="1.2442344"
       color-interpolation-filters="sRGB">
      <feGaussianBlur
         inkscape:collect="always"
         stdDeviation="1.2855093"
         id="feGaussianBlur4055-2-6" />
    </filter>
    <filter
       inkscape:collect="always"
       id="filter4057-6-5"
       x="-0.10268042"
       width="1.2053608"
       y="-0.12001031"
       height="1.2400206"
       color-interpolation-filters="sRGB">
      <feGaussianBlur
         inkscape:collect="always"
         stdDeviation="1.2855093"
         id="feGaussianBlur4059-1-7" />
    </filter>
    <filter
       inkscape:collect="always"
       id="filter4061-6-5"
       x="-0.10316211"
       width="1.2063242"
       y="-0.2347587"
       height="1.4695174"
       color-interpolation-filters="sRGB">
      <feGaussianBlur
         inkscape:collect="always"
         stdDeviation="1.2855093"
         id="feGaussianBlur4063-3-4" />
    </filter>
    <linearGradient
       inkscape:collect="always"
       xlink:href="#linearGradient5353"
       id="linearGradient6906"
       gradientUnits="userSpaceOnUse"
       gradientTransform="translate(792.78066,70.31856)"
       x1="-500.27805"
       y1="296.33243"
       x2="-569.22095"
       y2="71.826035" />
    <linearGradient
       inkscape:collect="always"
       xlink:href="#linearGradient4466"
       id="linearGradient6912"
       gradientUnits="userSpaceOnUse"
       gradientTransform="translate(792.78066,70.31856)"
       x1="-750"
       y1="149.5"
       x2="-330"
       y2="219.5" />
  </defs>
  <sodipodi:namedview
     id="base"
     pagecolor="#ffffff"
     bordercolor="#666666"
     borderopacity="1.0"
     inkscape:pageopacity="0.0"
     inkscape:pageshadow="2"
     inkscape:zoom="0.56568543"
     inkscape:cx="215.22674"
     inkscape:cy="309.68084"
     inkscape:document-units="px"
     inkscape:current-layer="layer3"
     showgrid="false"
     inkscape:window-width="1071"
     inkscape:window-height="759"
     inkscape:window-x="329"
     inkscape:window-y="112"
     inkscape:window-maximized="0"
     showguides="true"
     inkscape:guide-bbox="true"
     inkscape:snap-global="false" />
  <metadata
     id="metadata7">
    <rdf:RDF>
      <cc:Work
         rdf:about="">
        <dc:format>image/svg+xml</dc:format>
        <dc:type
           rdf:resource="http://purl.org/dc/dcmitype/StillImage" />
        <dc:title />
      </cc:Work>
    </rdf:RDF>
  </metadata>
  <g
     inkscape:groupmode="layer"
     id="layer3"
     inkscape:label="screen"
     style="display:inline">
    <path
       style="fill:#dddddd;fill-opacity:1;stroke:#999999;stroke-width:3;stroke-linecap:butt;stroke-linejoin:miter;stroke-miterlimit:4;stroke-opacity:1;stroke-dasharray:none"
       d="M 96.25,97.606602 149.04341,73.00858 c 6.99725,-3.483697 14.35776,-5.877626 22.5295,-5.837868 l 165.92709,0 c 8.10492,-0.317137 12.6743,1.266576 19.01145,4.480631 L 408.75,97.606602 z"
       id="path5716"
       inkscape:connector-curvature="0"
       sodipodi:nodetypes="ccccccc" />
    <path
       style="opacity:0.92920353;fill:#000000;stroke:none;filter:url(#filter5695)"
       d="m -731.85551,234.46059 -40.65864,132.58252 0,24.74874 22.98097,24.74874 404.81863,0 26.5165,-24.74874 10.6066,-35.35534 -42.4264,-118.44039 z"
       id="path5693"
       inkscape:connector-curvature="0"
       transform="matrix(0.92820308,0,0,0.92820308,757.54207,77.77859)" />
    <rect
       style="color:#000000;fill:#000000;fill-opacity:1;fill-rule:nonzero;stroke:#000000;stroke-width:3;marker:none;visibility:visible;display:inline;overflow:visible;enable-background:accumulate"
       id="rect4579"
       width="382.5"
       height="290"
       x="67.780678"
       y="109.81856"
       ry="55.944374" />
    <path
       style="color:#000000;fill:url(#linearGradient6912);fill-opacity:1;stroke:#999999;stroke-width:3;stroke-linecap:butt;stroke-linejoin:round;stroke-miterlimit:4;stroke-opacity:1;stroke-dasharray:none;stroke-dashoffset:0;marker:none;visibility:visible;display:inline;overflow:visible;enable-background:accumulate"
       d="m 93.81191,84.91231 c -30.99318,0 -55.9375,24.94431 -55.9375,55.9375 l 0,262.9375 c 0,30.99318 24.94432,55.9375 55.9375,55.9375 l 317.9375,0 c 30.99318,0 55.9375,-24.94432 55.9375,-55.9375 l 0,-262.9375 c 0,-30.99319 -24.94432,-55.9375 -55.9375,-55.9375 z m 11.0625,38.90625 301.8125,0 c 13.20708,0 23.84375,10.63667 23.84375,23.84375 l 0,219.3125 c 0,13.20708 -10.63667,23.84375 -23.84375,23.84375 l -301.8125,0 c -13.20708,0 -23.84375,-10.63667 -23.84375,-23.84375 l 0,-219.3125 c 0,-13.20708 10.63667,-23.84375 23.84375,-23.84375 z"
       id="rect4443"
       inkscape:connector-curvature="0"
       sodipodi:nodetypes="ssssssssssssssssss" />
    <rect
       style="color:#000000;fill:#008000;stroke:none;stroke-width:3;marker:none;visibility:visible;display:inline;overflow:visible;enable-background:accumulate"
       id="rect4463"
       width="37.90918"
       height="16.102314"
       x="373.80185"
       y="414.97058"
       ry="8.051157" />
    <text
       xml:space="preserve"
       style="font-size:173.03637695px;font-style:normal;font-weight:normal;line-height:125%;letter-spacing:0px;word-spacing:0px;fill:#00ff00;fill-opacity:1;stroke:none;font-family:Sans"
       x="105.13859"
       y="243.56808"
       id="text5404"
       sodipodi:linespacing="125%"><tspan
         sodipodi:role="line"
         id="tspan5406"
         x="105.13859"
         y="243.56808"
         style="font-style:normal;font-variant:normal;font-weight:bold;font-stretch:normal;fill:#00ff00;font-family:CourierPS;-inkscape-font-specification:CourierPS Bold">&gt;</tspan></text>
    <rect
       style="color:#000000;fill:url(#linearGradient6906);fill-opacity:1;fill-rule:nonzero;stroke:#000000;stroke-width:3;stroke-linecap:butt;stroke-linejoin:round;stroke-miterlimit:4;stroke-opacity:1;stroke-dasharray:none;stroke-dashoffset:0;marker:none;visibility:visible;display:inline;overflow:visible;enable-background:accumulate;opacity:0.57522124"
       id="rect5351"
       width="336.03552"
       height="254.57108"
       x="87.93235"
       y="128.93468"
       ry="20.589035" />
    <path
       style="color:#000000;fill:#ececec;fill-opacity:1;stroke:none;stroke-width:3.17268705;marker:none;visibility:visible;display:inline;overflow:visible;enable-background:accumulate"
       d="m 95.57968,89.48337 c -30.99318,0 -53.9375,23.17656 -53.9375,54.16974 l 0,260.9375 c 0,24.376 13.42664,43.01887 35.09375,50.71875 -15.13871,-9.98878 -25.09375,-23.14495 -25.09375,-42.71875 l 0,-268.9375 c 0,-30.99318 20.94432,-48.16974 51.9375,-48.16974 l 321.9375,0 c 6.61718,0 12.96193,1.12852 18.84375,3.21875 -8.83195,-5.82747 -19.42437,-9.21875 -30.84375,-9.21875 z"
       id="rect4443-4-5"
       inkscape:connector-curvature="0"
       sodipodi:nodetypes="ssscsssscss" />
    <rect
       style="color:#000000;fill:#00ff00;stroke:none;stroke-width:3;marker:none;visibility:visible;display:inline;overflow:visible;enable-background:accumulate"
       id="rect4463-5"
       width="34.750084"
       height="14.760455"
       x="377.4664"
       y="416.67029"
       ry="7.3802276" />
    <rect
       style="color:#000000;fill:none;stroke:#808080;stroke-width:2.76025295;marker:none;visibility:visible;display:inline;overflow:visible;enable-background:accumulate"
       id="rect4463-5-2"
       width="44.927246"
       height="21.025913"
       x="372.5358"
       y="413.7612"
       ry="10.512957" />
    <path
       style="fill:#ffffff;fill-opacity:0.49468085;stroke:none"
       d="m 99.65566,213.56856 0,-55.625 c 0,-10.74748 4.69672,-16.875 16.875,-16.875 l 58.125,0 c -28.83404,10.3372 -52.0356,26.70922 -66.37627,52.57505 -3.38129,6.09874 -6.26998,12.72527 -8.62373,19.92495 z"
       id="path5428"
       inkscape:connector-curvature="0"
       sodipodi:nodetypes="csscsc" />
  </g>
  <g
     inkscape:groupmode="layer"
     id="layer1"
     inkscape:label="wing">
    <path
       style="fill:#000000;stroke:none;display:inline;filter:url(#filter4061-6-5)"
       d="m 12.084359,44.002686 c -0.344089,5.522079 13.181159,14.248772 21.708508,12.833967 l 8.191598,-4.503915 -5.922019,-4.507806 -6.363961,-3.977475 -17.412505,0.53033"
       id="path3823-9"
       inkscape:connector-curvature="0"
       sodipodi:nodetypes="cc"
       transform="matrix(5.9308446,0,0,5.9308444,-15.973774,122.87569)" />
    <path
       style="fill:#000000;stroke:none;display:inline;filter:url(#filter4057-6-5)"
       d="M 27.506326,51.524212 C 19.848419,50.02477 3.9309167,41.690642 7.5025441,30.00149 l 11.5009509,-4.185256 12.727922,9.987883 5.303301,12.993087 z"
       id="path3825-4"
       inkscape:connector-curvature="0"
       sodipodi:nodetypes="cc"
       transform="matrix(5.9308446,0,0,5.9308444,-15.973774,122.87569)" />
    <path
       style="fill:#000000;stroke:none;display:inline;filter:url(#filter4053-6-1)"
       d="M 7.7467238,18.851352 C 1.6329538,27.328026 15.066733,42.25644 24.343588,44.115789 L 32.173359,40.311923 21.743534,28.114331 z"
       id="path3827-8"
       inkscape:connector-curvature="0"
       sodipodi:nodetypes="cc"
       transform="matrix(5.9308446,0,0,5.9308444,-15.973774,122.87569)" />
    <path
       style="fill:#cccccc;stroke:none;display:inline"
       d="m 60.561997,131.30372 c -11.78098,79.7638 52.805053,134.07192 166.701193,171.94335 36.14227,14.86689 46.24156,34.86299 31.45307,59.76078 -3.59143,8.83239 -10.92553,17.97666 17.8234,24.11402 l 22.01714,26.21089 37.74366,27.2593 -49.27646,12.58123 c 0.33207,25.89914 -3.91438,35.44623 -10.48434,36.69525 -24.30195,4.6246 -5.51343,-32.30237 -5.24217,-51.37335 -5.07608,28.83682 -13.88825,50.86068 -35.64679,49.27643 -22.35072,-3.44669 3.17303,-32.77149 14.67807,-54.5186 -18.52235,35.21675 -37.04471,40.77442 -55.56705,36.69527 -6.47725,-2.37175 -11.66696,-5.25841 -8.38749,-11.53282 -35.32673,6.72128 -61.86322,-8.25913 -78.61583,-16.99505 C 68.848037,421.13 56.631857,393.54514 56.106147,382.666 39.501636,357.36549 16.385948,336.7139 28.060499,300.10175 c -2.937629,-23.40357 -14.912162,-49.95046 3.145298,-66.0514 -3.794735,-30.14666 -3.092937,-48.63566 -0.0086,-60.94713 5.970602,-23.83064 17.161931,-38.23093 29.364571,-41.7995 z"
       id="path3854"
       inkscape:connector-curvature="0"
       sodipodi:nodetypes="cccccccccccccscccsc" />
    <path
       style="fill:none;stroke:#000000;stroke-width:3.79063153;stroke-linecap:butt;stroke-linejoin:miter;stroke-miterlimit:4;stroke-opacity:1;stroke-dasharray:none;display:inline"
       d="M 184.44651,459.965 C 133.8721,468.35602 54.180167,413.97826 56.220907,381.22769"
       id="path3823"
       inkscape:connector-curvature="0"
       sodipodi:nodetypes="cc" />
    <path
       style="fill:none;stroke:#000000;stroke-width:3.79063153;stroke-linecap:butt;stroke-linejoin:miter;stroke-miterlimit:4;stroke-opacity:1;stroke-dasharray:none;display:inline"
       d="M 147.162,428.45777 C 101.74412,419.56481 7.3398884,370.13642 28.522646,300.80985"
       id="path3825"
       inkscape:connector-curvature="0"
       sodipodi:nodetypes="cc" />
    <path
       style="fill:none;stroke:#000000;stroke-width:3.79063153;stroke-linecap:butt;stroke-linejoin:miter;stroke-miterlimit:4;stroke-opacity:1;stroke-dasharray:none;display:inline"
       d="M 29.970838,234.68012 C -6.2889864,284.95396 73.384687,373.49206 128.40429,384.51957"
       id="path3827"
       inkscape:connector-curvature="0"
       sodipodi:nodetypes="cc" />
    <path
       style="fill:#000000;stroke:none;display:inline;filter:url(#filter3928-3-6)"
       d="m 26.097514,25.519357 c -2.031444,-0.601378 -3.774105,2.804588 -2.521726,4.93228 1.582708,2.688893 7.552306,4.469156 13.509141,3.999387 -6.758663,0.708893 -13.106404,-3.695 -14.471533,0.723938 -0.846012,2.738549 -0.08073,6.012264 14.220288,5.473414 -5.474717,-0.04408 -13.804398,-0.7891 -12.634431,3.331199 0.611194,2.152442 3.03897,5.807427 14.806927,1.955406 -6.1937,1.094002 -13.134751,4.392899 -11.280561,6.989267 2.156881,3.020216 7.843709,2.367951 14.234768,-2.956872 -7.37638,4.721277 -9.235848,6.778926 -7.442391,8.174622 3.192886,2.484749 8.913928,-1.465111 10.622437,-6.280246 -1.905741,4.117603 -6.616997,9.01745 -2.823326,9.957191 2.646482,0.655568 5.524299,-4.889488 6.49535,-8.879185 -0.139737,3.068457 -3.017997,8.74498 -0.301561,8.878898 1.693183,0.08347 2.791608,-1.100966 2.20088,-4.097416 -0.04643,-1.76565 0.162835,-3.190977 3.788889,-2.976293 2.347996,0.139024 4.705801,-0.172453 4.692223,-1.253319 -0.01205,-0.958881 -2.07774,-1.093887 -3.355657,-1.525 -0.519944,-1.5159 -1.570238,-2.432801 -3.082818,-2.827581 -0.37485,-2.210068 -1.492986,-3.319894 -4.105907,-4.072388 -2.776716,-0.799664 -4.381794,-2.50507 -2.524131,-4.418714 2.29613,-2.365323 2.824915,-5.977421 -3.586242,-8.705591 C 35.555208,28.970873 27.955915,27.397072 21.952268,22.891299 12.405861,15.726664 11.208985,8.4317593 13.092869,1.5560101 12.222878,0.40518373 4.7699196,8.3929423 8.2454698,19.476273 10.493097,26.643825 15.623441,31.535665 22.678003,34.922868 23.36303,33.305751 24.873724,33.015522 26.5625,33.125"
       id="path3817-0"
       inkscape:connector-curvature="0"
       sodipodi:nodetypes="cscscscccscscscscscscsccscc"
       transform="matrix(5.9308446,0,0,5.9308444,-15.973774,122.87569)" />
    <path
       style="fill:#f2f2f2;stroke:#000000;stroke-width:3.79063153;stroke-linecap:butt;stroke-linejoin:miter;stroke-miterlimit:4;stroke-opacity:1;stroke-dasharray:none;display:inline"
       d="m 138.80656,274.22703 c -12.04819,-3.56668 -22.38365,16.63357 -14.95598,29.25258 9.38679,15.94741 44.79156,26.50588 80.12063,23.71974 -40.08457,4.20434 -77.73206,-21.91446 -85.82842,4.29356 -5.01756,16.24191 -0.47881,35.65781 84.33832,32.46197 -32.46969,-0.26142 -81.87174,-4.68003 -74.93286,19.75682 3.62489,12.7658 18.02368,34.44295 87.81759,11.59721 -36.73386,6.48837 -77.90017,26.05361 -66.90323,41.45226 12.79211,17.91244 46.5198,14.04395 84.42418,-17.53675 -43.74816,28.00116 -54.77638,40.20476 -44.13967,48.48238 18.93651,14.73672 52.86713,-8.6893 63.00004,-37.24712 -11.30265,24.42086 -39.24439,53.48111 -16.74473,59.05456 15.69588,3.88803 33.28798,-31.35779 39.04713,-55.02006 -0.82875,18.19854 -18.42348,54.22413 -2.31272,55.01834 10.04201,0.49504 16.55659,-6.52963 13.05308,-24.30114 -0.27537,-10.4718 0.96577,-18.92518 22.47132,-17.65193 13.92562,0.82454 27.90938,-1.02278 27.82886,-7.43324 -0.0718,-5.68698 -12.32279,-6.48768 -19.90188,-9.04453 -3.08371,-8.99057 -9.31286,-14.42856 -18.28373,-16.76995 -2.22319,-13.10756 -8.85467,-19.68977 -24.3515,-24.1527 -16.46828,-4.74267 -25.98775,-14.85717 -14.97024,-26.2067 13.618,-14.02836 16.75415,-35.45117 -21.26944,-51.63151 -41.41464,-17.62339 -86.48486,-26.95736 -122.09159,-53.6804 -56.618263,-42.49235 -63.716753,-85.75727 -52.543723,-126.53629 -5.15977,-6.82536 -49.362131,40.54879 -28.749174,106.28231 13.330324,42.50962 43.757624,71.52238 85.597127,91.61134 4.06279,-9.59087 13.02249,-11.31217 23.03837,-10.66287"
       id="path3817"
       inkscape:connector-curvature="0"
       sodipodi:nodetypes="cscscscccscscscscscscsccscc" />
    <path
       style="fill:#000000;stroke:none;display:inline;filter:url(#filter4109-7-7)"
       d="M 46.875,34.25 C 42.94747,33.366548 44.070037,31.542288 42.59375,31.3125 38.880547,30.847099 37.753258,32.752118 37,35 c -0.498883,2.285817 1.841053,2.414133 3.25,3.25 -4.322207,0.436833 -3.167429,1.685072 -3.25,2.75 0.597711,1.533213 2.336091,1.569297 4.25,1.375 -1.625134,0.8541 -3.298259,1.684204 -2,4 1.623237,0.93269 2.994931,0.188429 4.375,-0.5 -2.169991,1.603191 -2.987994,3.062553 -1.25,4.25 2.246178,1.378061 3.475199,-0.125826 4.75,-1.5 -0.27575,1.521883 -0.545907,3.041694 1.375,3.75 2.786137,0.669368 3.631786,-1.222709 4.375,-3.25 L 51.75,45.75 47.625,44.375 45.375,42 47.75,37.625 z"
       id="path4084-8"
       inkscape:connector-curvature="0"
       sodipodi:nodetypes="ccccccccccccccccc"
       transform="matrix(5.9308446,0,0,5.9308444,-15.973774,122.87569)" />
    <path
       style="fill:#ffffff;stroke:#000000;stroke-width:0.59308445;stroke-linecap:butt;stroke-linejoin:miter;stroke-miterlimit:4;stroke-opacity:1;stroke-dasharray:none;display:inline"
       d="m 262.03459,326.0071 c -14.72642,-13.2356 -15.80157,-16.83762 -25.39141,-17.42184 -22.02244,-2.76023 -27.39767,5.5239 -31.86512,18.85573 -2.95882,13.55683 9.60844,17.3321 17.96469,22.2895 -25.63435,2.59078 -18.78552,9.99389 -19.27523,16.30981 3.54492,9.09325 13.85498,9.30728 25.20609,8.15493 -9.63842,5.06553 -19.56147,9.98875 -11.86169,23.72337 9.62716,5.53164 17.76246,1.11754 25.94742,-2.96543 -12.86987,9.50829 -17.7213,18.16353 -7.41354,25.20609 13.32173,8.17308 20.61087,-0.74625 28.17152,-8.89625 -1.63543,9.02603 -3.23769,18.0398 8.1549,22.24064 16.52415,3.96993 21.53955,-7.25168 25.94745,-19.27523 l -6.67221,-20.01659 -24.46471,-8.15493 -13.34442,-14.08575 14.08576,-25.94743 z"
       id="path4084"
       inkscape:connector-curvature="0"
       sodipodi:nodetypes="ccccccccccccccccc" />
    <path
       style="fill:none;stroke:#000000;stroke-width:3.79063153;stroke-linecap:butt;stroke-linejoin:miter;stroke-miterlimit:4;stroke-opacity:1;stroke-dasharray:none;display:inline"
       d="m 295.66998,415.6845 c -2.55512,12.50149 -12.53421,22.36186 -22.93204,17.99055 -10.43036,-4.38497 -14.8184,-12.83793 -8.34966,-22.29546 -7.77392,5.92693 -18.24949,18.7791 -29.89858,9.0591 -11.99025,-10.00471 -1.27072,-15.63666 9.11207,-25.95116 -13.39282,6.52583 -21.09369,10.66448 -26.50715,2.78822 -9.31706,-13.55578 3.86743,-20.01337 12.61921,-23.20098 -12.93684,0.76469 -24.84265,1.78319 -26.70003,-12.24681 -0.7299,-5.51322 2.67748,-12.22256 20.89333,-12.61573 -17.8174,-3.02329 -19.78978,-15.36004 -19.16936,-22.29361 1.01832,-11.37973 13.09941,-25.45035 30.81831,-17.77963"
       id="path3819"
       inkscape:connector-curvature="0"
       sodipodi:nodetypes="cscscscscsc" />
    <path
       style="font-size:medium;font-style:normal;font-variant:normal;font-weight:normal;font-stretch:normal;text-indent:0;text-align:start;text-decoration:none;line-height:normal;letter-spacing:normal;word-spacing:normal;text-transform:none;direction:ltr;block-progression:tb;writing-mode:lr-tb;text-anchor:start;baseline-shift:baseline;color:#000000;fill:#000000;fill-opacity:1;stroke:none;stroke-width:1;marker:none;visibility:visible;display:inline;overflow:visible;enable-background:accumulate;font-family:Sans;-inkscape-font-specification:Sans"
       d="m 117.42882,261.97698 c 35.77429,24.78422 75.34775,33.84576 119.98204,49.78036 18.71508,6.68133 24.96972,17.04503 26.35817,25.73878 1.38843,8.69375 -2.83221,17.62027 -9.03676,24.01177 -0.0796,0.0155 -0.15853,0.032 -0.23687,0.0522 -2.69283,3.23101 -3.91187,6.84451 -3.6957,10.28582 0.21619,3.44128 1.7433,6.70046 3.81562,9.35197 4.14463,5.30297 10.44424,9.18447 15.99419,12.13457 0.71268,0.37186 1.54917,0.52525 2.35494,0.43206 6.64509,-0.71293 11.18033,-0.10783 13.97672,0.96742 2.79638,1.07531 4.12284,2.42561 5.0712,4.33875 1.89672,3.82631 1.23028,10.21007 1.01301,15.17776 -0.0243,1.63095 1.2335,3.20645 2.89751,3.63009 7.92453,2.06828 12.79896,6.35078 15.54766,14.3646 0.35549,1.0535 1.23659,1.93735 2.32649,2.33359 4.29497,1.44894 9.43711,2.19297 13.05638,3.30119 1.80963,0.55416 3.26369,1.26902 3.92922,1.74576 0.66552,0.47684 0.40184,0.45507 0.40388,0.62235 0.008,0.32922 0.0673,0.28842 -0.78061,0.88166 -0.84776,0.59326 -2.50672,1.25269 -4.8081,1.76348 -4.6029,1.02116 -11.31747,1.2619 -18.01846,0.86515 -22.63595,-0.47553 -26.59609,7.75861 -23.0687,20.01709 4.17992,-14.82419 11.58072,-13.0967 22.42557,-12.53187 7.22454,0.42774 14.5929,0.13939 20.44326,-1.15916 2.92518,-0.64938 5.53426,-1.58174 7.72094,-3.11197 2.18673,-1.53025 3.8563,-3.8833 3.8202,-6.75932 -0.0336,-2.67621 -1.73285,-5.19877 -3.62138,-6.55154 -1.88844,-1.35273 -3.94903,-2.00259 -6.15859,-2.67915 -4.05141,-1.24054 -8.27182,-2.18138 -11.52348,-3.16295 -3.27775,-7.52353 -9.23692,-12.45224 -16.7737,-15.28072 0.33026,-4.38875 1.12163,-10.48629 -1.82093,-16.42238 -1.6591,-3.34695 -4.78358,-6.43588 -9.26461,-8.15892 -3.97184,-1.52729 -9.2838,-1.77636 -15.56523,-1.33036 -4.93132,-2.66963 -10.37258,-6.29492 -13.19387,-9.90472 -1.4554,-1.86217 -2.42087,-3.54271 -2.52083,-5.13406 -0.0944,-1.50392 0.44654,-3.23238 1.96632,-5.16882 0.0757,-0.0778 0.10587,-0.19799 0.18118,-0.27658 7.29747,-7.62366 12.71796,-18.19464 10.89171,-29.63023 -1.12225,-7.02726 -5.05088,-14.07628 -12.40669,-20.41449 -4.73809,-4.08259 -10.89811,-7.8703 -18.64596,-11.16728 C 198.52974,287.08419 160.00724,276.53474 124.15287,251.91827 49.781447,200.85716 65.522597,130.71317 62.205877,131.51512 c -9.69348,1.34747 -18.980021,79.05438 55.222943,130.46185 z"
       id="path3817-4"
       inkscape:connector-curvature="0"
       sodipodi:nodetypes="cssccssccssccccsccscccccscssccsscssccsscscsc" />
    <path
       style="opacity:0.30973451;fill:#000000;stroke:none;display:inline;filter:url(#filter4162-1-2-7)"
       d="M 21.799175,33.81066 C 16.004949,28.180848 7.2373993,17.302198 8.625,8.375 c -2.6477991,5.094733 -0.421347,12.563126 2.222272,16.600951 3.193427,4.877595 9.701903,11.464496 10.951903,8.834709 z"
       id="path4131"
       inkscape:connector-curvature="0"
       sodipodi:nodetypes="ccsc"
       transform="matrix(5.9308446,0,0,5.9308444,-15.973774,122.87569)" />
    <path
       style="opacity:0.30973451;fill:#000000;stroke:none;display:inline;filter:url(#filter4190-7-0-0)"
       d="M 18.335673,40.397873 C 13.98413,36.515772 9.126133,31.303154 6.2291723,22.927607 c -0.6156301,3.937428 1.5142969,7.92078 3.5415067,10.930327 1.275086,1.892962 3.713423,4.101034 8.564994,6.539939 z"
       id="path4131-5"
       inkscape:connector-curvature="0"
       sodipodi:nodetypes="ccsc"
       transform="matrix(5.9308446,0,0,5.9308444,-15.973774,122.87569)" />
    <path
       style="opacity:0.30973451;fill:#000000;stroke:none;display:inline;filter:url(#filter4190-5-5-4-4)"
       d="M 19.477736,47.712385 C 14.892964,43.669904 10.425473,40.840888 8.2627592,32.220593 c -1.6762903,3.053545 1.0117379,6.068647 3.0389478,9.078193 1.275086,1.892962 2.882516,4.681801 8.176029,6.413599 z"
       id="path4131-5-7"
       inkscape:connector-curvature="0"
       sodipodi:nodetypes="ccsc"
       transform="matrix(5.9166403,-0.41022518,0.41022518,5.9166403,-33.419119,132.62853)" />
    <path
       style="opacity:0.30973451;fill:#000000;stroke:none;display:inline;filter:url(#filter4190-5-1-3-0-1)"
       d="m 18.889215,48.427998 c -3.925318,-5.188115 -8.17296,-9.410027 -11.0760383,-17.390383 -1.6762903,3.053545 0.8955785,7.744003 2.9227883,10.753549 1.275086,1.892962 2.859737,4.905036 8.15325,6.636834 z"
       id="path4131-5-7-5"
       inkscape:connector-curvature="0"
       sodipodi:nodetypes="ccsc"
       transform="matrix(3.8292231,-2.1972111,2.1131862,4.4088493,-32.476626,278.08602)" />
    <path
       style="opacity:0.3;fill:#000000;stroke:none;display:inline;filter:url(#filter4252-9-9-3)"
       d="m 23.190257,29.013249 c 3.04114,2.423445 8.270449,4.850015 11.585022,5.494566 -2.014817,0.345744 -5.522311,-0.57231 -6.948073,-1.051243 -4.21032,-1.414302 -4.421002,-3.612391 -4.636949,-4.443323 z"
       id="path4242"
       inkscape:connector-curvature="0"
       sodipodi:nodetypes="ccsc"
       transform="matrix(5.9308446,0,0,5.9308444,-15.973774,122.87569)" />
    <path
       style="opacity:0.3;fill:#000000;stroke:none;display:inline;filter:url(#filter4495-3-7)"
       d="m 23.842783,34.620119 c 3.04114,2.423445 8.214577,4.910718 11.529151,5.555269 -2.014818,0.345744 -6.515341,-0.337494 -7.898445,-0.928423 -4.01241,-1.714294 -3.530552,-2.686616 -3.630706,-4.626846 z"
       id="path4242-6"
       inkscape:connector-curvature="0"
       sodipodi:nodetypes="ccsc"
       transform="matrix(5.9186915,-0.37948432,0.37948432,5.9186915,-37.469439,138.58187)" />
    <path
       style="opacity:0.3;fill:#000000;stroke:none;display:inline;filter:url(#filter4252-2-1-4-4-4)"
       d="m 23.49433,35.714648 c 3.789575,2.073781 7.208286,3.275652 10.52286,3.920203 -2.014818,0.345744 -5.621236,0.08978 -7.046998,-0.389149 C 22.759872,37.8314 24.4793,37.78934 23.49433,35.714648 z"
       id="path4242-6-2"
       inkscape:connector-curvature="0"
       sodipodi:nodetypes="ccsc"
       transform="matrix(5.883306,-1.174361,1.2513448,7.3156613,-56.052742,148.90126)" />
    <path
       style="opacity:0.3;fill:#000000;stroke:none;display:inline;filter:url(#filter4252-2-3-3-7-9)"
       d="m 23.935159,35.966108 c 6.29038,3.021956 13.557704,3.050621 17.899362,2.931589 -8.187811,2.07953 -12.19327,1.09912 -13.619032,0.620187 -4.21032,-1.414302 -4.064383,-2.720844 -4.28033,-3.551776 z"
       id="path4242-6-21"
       inkscape:connector-curvature="0"
       sodipodi:nodetypes="ccsc"
       transform="matrix(4.2304509,-1.5123294,1.806754,5.7329139,-18.133077,262.90157)" />
    <path
       style="opacity:0.3;fill:#000000;stroke:none;display:inline;filter:url(#filter4252-2-3-6-1-0-3)"
       d="m 23.935159,35.966108 c 3.04114,2.423445 6.621087,3.289808 9.935661,3.934359 -2.014818,0.345744 -4.229569,0.09635 -5.655331,-0.382583 -4.21032,-1.414302 -4.064383,-2.720844 -4.28033,-3.551776 z"
       id="path4242-6-21-5"
       inkscape:connector-curvature="0"
       sodipodi:nodetypes="ccsc"
       transform="matrix(3.8554529,-2.3063687,2.8874361,5.2719422,-12.462858,325.55428)" />
    <path
       style="opacity:0.3;fill:#000000;stroke:none;display:inline;filter:url(#filter4252-2-3-7-3-0-9)"
       d="m 23.935159,35.966108 c 3.04114,2.423445 6.621087,3.289808 9.935661,3.934359 -2.014818,0.345744 -4.229569,0.09635 -5.655331,-0.382583 -4.21032,-1.414302 -4.064383,-2.720844 -4.28033,-3.551776 z"
       id="path4242-6-21-1"
       inkscape:connector-curvature="0"
       sodipodi:nodetypes="ccsc"
       transform="matrix(1.7456487,-2.5483086,3.6526306,2.795601,54.209587,444.29924)" />
    <path
       style="opacity:0.3;fill:#000000;stroke:none;display:inline;filter:url(#filter4252-2-3-7-8-2-3-8)"
       d="m 23.935159,35.966108 c 3.04114,2.423445 6.621087,3.289808 9.935661,3.934359 -2.014818,0.345744 -4.229569,0.09635 -5.655331,-0.382583 -4.21032,-1.414302 -4.064383,-2.720844 -4.28033,-3.551776 z"
       id="path4242-6-21-1-2"
       inkscape:connector-curvature="0"
       sodipodi:nodetypes="ccsc"
       transform="matrix(-0.02396116,-2.5380056,4.8387152,0.38865138,92.399951,536.8623)" />
  </g>
</svg>
